<svg id="Layer_1" data-name="Layer 1" xmlns="http://www.w3.org/2000/svg" viewBox="0 0 652.7 722.8"><defs><style>.cls-1{fill:#fff;}</style></defs><title>Zlogo</title><path class="cls-1" d="M510.07,556.49a10.78,10.78,0,0,0-1.78-8.16A11,11,0,0,0,501,544c-3.5-.56-6.37,0-8.54,1.75a8.61,8.61,0,0,0-3.19,6c-1.48,7.94,2.94,12.07,7.63,13.29a10.38,10.38,0,0,0,13.22-8.52Z" transform="translate(-227.5 -178.2)"/><path class="cls-1" d="M597.63,522.72a10.76,10.76,0,0,0,1.78,8.15,11,11,0,0,0,7.35,4.37c3.49.56,6.36,0,8.53-1.75a8.61,8.61,0,0,0,3.19-6c1.48-7.94-2.94-12.07-7.63-13.29a10.38,10.38,0,0,0-13.22,8.53Z" transform="translate(-227.5 -178.2)"/><path class="cls-1" d="M719.87,488.83c-7.35-12.32-14.94-25.06-22.29-37.68-2-3.43-3.91-4.84-7.6-5.57l-49.56-9.86L615.8,446.28l35.89,7.22c4.55.92,5.26.71,6.53-.67,4.29-4.65,11.07-5.25,16.87-1.49,4.52,2.93,6.82,7.57,6.86,13.8v1.27l-.53,1.16a21,21,0,0,1-3.57,5.71,13.22,13.22,0,0,1-7.78,4.22c-7.34,1.2-13.28-1.86-15.13-7.79-.84-2.68-1.94-3.11-7.2-4.15l-.57-.12c-17.23-3.43-34.57-6.89-51.88-10.36l-63.52,27.25a26.84,26.84,0,0,1-.71,2.69l-.34,1.05-.18.21c.12.21.26.42.37.6.22.35.44.7.65,1.05l13.8,23.17c5.51,9.26,11.11,18.65,16.72,28.1,0,0,8.45,15,12.88,22.4q5.91,9.87,11.81,19.74c.32.54.63,1.09.93,1.64,1.71,3.06,2,3.2,3.11,3.3a16.75,16.75,0,0,1,6.06,1.61L609,582.71a24.7,24.7,0,0,1-8.46-8.85c-6.72-11.29-27.32-47.41-31.39-54.05l-2.66-4.33c-.63-1-1.21-2.05-1.77-3.05-2.84-5-4.4-7.5-8.77-7.95a10.73,10.73,0,0,1-8-4.76c-2.2-3.31-2.7-8-1.35-12.42,2.2-7.24,8.22-11,15.72-9.81,4.56.73,8.49,3.19,10.49,6.6a10.79,10.79,0,0,1,.83,9.34c-1.6,4.4,0,7.09,3.37,12.27.67,1,1.36,2.05,2,3.15q4,6.57,8,13.12c3.61,5.91,7.29,11.95,10.93,18,0,0,10.8,17,15.87,25.51,2.14,3.56,4.05,5,7.58,5.66l10,1.91,79-33.88H685.16l9-3.84a15.65,15.65,0,0,1,4.7-5,14.21,14.21,0,0,1,11-2.55,11.64,11.64,0,0,1,1.32.35l9-3.86c-24.29-4.87-48.45-9.73-72.27-14.53l-20.34-4.1-1.47-.26c-3.47-.58-8.73-1.47-12.52-7.15l-7.74-11.57,128,25.66C729.18,504.46,724.45,496.52,719.87,488.83Zm-109,25.36c4.69,1.22,9.11,5.35,7.63,13.29a8.61,8.61,0,0,1-3.19,6c-2.17,1.72-5,2.31-8.53,1.75a11,11,0,0,1-7.35-4.37,10.76,10.76,0,0,1-1.78-8.15,10.38,10.38,0,0,1,13.22-8.53Z" transform="translate(-227.5 -178.2)"/><path class="cls-1" d="M688.31,213.81c2.35-11.73,4.74-23.64,7.15-35.61h-37c4.37,7.61,8.58,15,12.66,22.09,1.55,2.71,2.17,2.9,3.4,3.06,5.77.77,8.84,3.66,10.39,6a15.71,15.71,0,0,1-1.63,18.31,12.78,12.78,0,0,1-3,2.4,14.11,14.11,0,0,1-11,1.09c-4.79-1.37-8.34-4.24-10-8.07a13.39,13.39,0,0,1,.72-11.6c.56-1.09.58-1.13-.89-3.59l-.64-1.1c-3.18-5.55-6.37-11.21-9.46-16.68q-3.32-5.9-6.71-11.86H629.15c16.26,27.33,33,55.51,49.58,83.35Q683.51,237.68,688.31,213.81Z" transform="translate(-227.5 -178.2)"/><path class="cls-1" d="M701.81,269.41A14.61,14.61,0,0,1,711.9,275a14,14,0,0,1,2.38,10.81,15.53,15.53,0,0,1-3.68,8.15,12.24,12.24,0,0,1-2,1.74,12.86,12.86,0,0,1-8.2,2.22l4.4,7.38q19.68,2.13,30.29,12.3,13.41,12.87,13.41,34.3a62.11,62.11,0,0,1-3.38,21c18.15,30.44,35.5,59.58,52.25,87.73a13.85,13.85,0,0,1,5.73-7.05,10.48,10.48,0,0,1,8.07-1c12.44,3,13.67,10.86,13.18,15.61q5.21-4.65,9.89-9.58a12.86,12.86,0,0,1-4.73-4.66c-1.94-3.33-2.28-7.41-1-12.12l.3-1.12.7-.91a19.73,19.73,0,0,0-1-1.78l-.27-.45c-28.93-48.17-67-111.61-105.16-175.19-.95-1.6-1.22-1.63-2.09-1.71-6-.57-9.2-3.32-10.82-5.53s-3.25-5.94-2.07-11.64A14.07,14.07,0,0,1,714,234.2a13.75,13.75,0,0,1,10.62-1.66c5.82,1.27,8.62,4.46,10,6.91s2.45,6.55.31,12.12c-.56,1.46-.49,2.18,1.4,5.33,34,56.51,68.55,114,102,169.6l1.26,2.1c2,3.32,2.48,3.8,4.11,4a15.07,15.07,0,0,1,8.45,3.52.71.71,0,0,0,.1-.14q-20.74-34.65-41.21-68.8l-27.74-46.3-.6-1c-2.07-3.3-5.92-9.43-.26-17.24l5.08-7,23.27,38.42c1.95-9.72,3.74-18.68,5.55-27.59a12.25,12.25,0,0,1-2.77-3.11c-4.56-7.7-3-15.35,4.15-20a13.43,13.43,0,0,1,19.43,4.13,14.66,14.66,0,0,1,2,12.37,12.74,12.74,0,0,1-7.73,7.95c-1.66.66-1.94,1.21-2.91,4.37-.29.92-.61,1.95-1,3-9.41,24.31-5.5,46.23,11.94,67,.08.1.16.19.23.29q.54-2.69,1.07-5.32.52-3.3,1.33-6.66c1.06-5.26,2.1-10.45,3.17-15.67l-.22-.21a16.11,16.11,0,0,1-2.12-2.44c-3.21-4.73-3.29-8.77-2.78-11.32a13.87,13.87,0,0,1,6.37-8.9c4.57-3,8.57-3,11.13-2.4s6.2,2.26,9,7a14.26,14.26,0,0,1,1.62,12.2,13.07,13.07,0,0,1-8.07,7.87c-1.85.67-2.16,1.28-3.26,4.75-.25.79-.51,1.61-.83,2.49a87.14,87.14,0,0,0-2.78,9c-.44,2.18-.87,4.36-1.32,6.57A56,56,0,0,0,861,420.28q17.21-35.5,17.23-83.42,0-75-43.2-116.17l-.12.63c-.09.45-.19.89-.28,1.33-1,4.84-1.05,6.07,1,8.07a11.82,11.82,0,0,1,3.61,9.57,13.79,13.79,0,0,1-3.71,8.05,17,17,0,0,1-2.91,2.52c-6.84,4.7-14.66,3.4-19.45-3.24a15.11,15.11,0,0,1-2.55-12.84,11.09,11.09,0,0,1,6.61-7.36c3.87-1.54,4.4-3.82,5.34-9.28.18-1,.37-2.11.6-3.22s.51-2.44.76-3.66q-41.18-31.06-112.35-32.93c-6.94,34.85-12.93,64.56-18.67,92.64A14.21,14.21,0,0,1,701.81,269.41Z" transform="translate(-227.5 -178.2)"/><path class="cls-1" d="M494.75,202.22c35,6.93,70.61,14.06,105,20.95l41.53,8.31q-8.38-14.1-16.79-28.19L609.57,178.2h-131q5.47,9.95,10.93,19.85C491,200.71,492.29,201.73,494.75,202.22Z" transform="translate(-227.5 -178.2)"/><path class="cls-1" d="M381.19,179.42c25.5,5,51.42,10.21,76.49,15.25l13.55,2.72L460.66,178.2H380.41a12.09,12.09,0,0,0,.67,1.19Z" transform="translate(-227.5 -178.2)"/><path class="cls-1" d="M751.32,511l11.12-4.75a258.16,258.16,0,0,0,32.61-16.59l-.23-.38c-13.94-23.41-28.3-47.52-42.48-71.45a10.94,10.94,0,0,1-2.41,4.59,8.46,8.46,0,0,1-1.55,1.33,9.37,9.37,0,0,1-7.45,1.22c-7.94-1.7-9.84-7.53-9-12.41,1-5.65,5.44-8.88,11.59-8.43l.21,0a9.79,9.79,0,0,0-5-2.31l-14.85-2.94A76.4,76.4,0,0,1,711,405.45l-19.26,8.27,9.5,1.9-2.41,11.86-26.7-5.35-6.83,2.93L690,429.93c10.89,2.14,17.82,7.09,23.16,16.56,8.83,15.65,18.26,31.35,27.38,46.54Q745.95,502,751.32,511Z" transform="translate(-227.5 -178.2)"/><path class="cls-1" d="M260.93,304.69h64a2.24,2.24,0,0,0,.44-4.44h0c-8.44-1.7-17.17-3.45-25.76-5.21-3.69-.75-4.9-.53-6.85,1.25a16,16,0,0,1-12.15,4.56c-4.62-.34-9.09-2.9-12.57-7.2a16.29,16.29,0,0,1-3.29-13.49,16.6,16.6,0,0,1,8.41-11.37c5-2.66,9.92-3.27,14.34-1.74a16.07,16.07,0,0,1,9.4,9.2c1,2.31,1.87,2.85,5.71,3.62,40.19,8,81.6,16.25,123.45,24.77a2.12,2.12,0,0,0,.44.05h23.55a2.22,2.22,0,0,0,1.39-.49c10.81-8.58,21.84-17.05,33.48-26l.89-.68a2.24,2.24,0,0,0-.92-4l-17.13-3.43-9.68-1.94c-9.81-2-20-4-29.92-6.06l-1-.14c-2.09-.28-5.61-.74-7.78-3.74a8.6,8.6,0,0,1,2.46-12c3.25-1.89,6.65-.72,8.47-.1.27.09.66.23.8.26,14.3,2.75,28.85,5.68,42.91,8.51l12.32,2.48,25.45,5.12c23.91,4.83,48.64,9.82,73,14.47,7.62,1.45,12.78,5.18,16.72,12.08q4.14,7.23,8.34,14.49a2.25,2.25,0,0,0,1.94,1.12H622a2.24,2.24,0,0,0,1.92-3.4c-5.19-8.54-10.42-17.19-15.54-25.79-2.1-3.53-4.33-5.07-8.51-5.88-28-5.45-56.5-11.18-84-16.72l-27.38-5.5q-13.87-2.79-27.76-5.55c-27.4-5.48-55.74-11.14-83.59-16.89-5.13-1.06-8-.59-11,1.8a54.85,54.85,0,0,1-6.51,4.33,34,34,0,0,0-6.21,4.32C339.55,248.92,324,246.83,310.62,243c-6.21-1.77-9.59-5.93-12.3-9.27a32.7,32.7,0,0,0-3.08-3.46,46.94,46.94,0,0,1-5.45-6.27c-3.9-5.07-6-7.5-11-7.25a10.39,10.39,0,0,1-8.42-3.62,15.16,15.16,0,0,1-3.16-12.44c1.29-7.4,7-11.95,14.62-11.6a14.83,14.83,0,0,1,10.68,4.71,12.87,12.87,0,0,1,3,9.81c-.65,7.41,3.46,11.5,10.21,17.56a77.85,77.85,0,0,1,6.53,6.34c3.86,4.36,12.24,4.34,19.63,4.32h.77c3.5,0,7.72-3.84,11.44-7.23l1.32-1.2c16.07-14.44,33.3-13.15,48-10,57.89,12.44,117,24.07,174.15,35.33l34.58,6.81c8.67,1.72,14.16,5.49,18.35,12.63,7,11.83,14.16,23.73,21.29,35.43a2.24,2.24,0,0,0,1.91,1.08h37.17a2.24,2.24,0,0,0,1.93-3.38c-9.26-15.58-18.54-31.24-27.7-46.8-2-3.33-4.14-4.75-8.61-5.64-96.73-19.24-192-38.38-264.12-52.91-4.33-.87-5.45-.69-7.53,1.25a15.85,15.85,0,0,1-12.63,4.57c-4.71-.53-9-3.39-12.16-8a16.89,16.89,0,0,1-3-12.89A2.22,2.22,0,0,0,345,178.2H266a38.55,38.55,0,0,0-38.54,38.54v54.52A33.43,33.43,0,0,0,260.93,304.69Z" transform="translate(-227.5 -178.2)"/><path class="cls-1" d="M528.53,304.69h16.79l2.95-2.06,9.66-6.72,5.17,8.78h29.16l-4-7a8.77,8.77,0,0,0-6.92-4.9c-23.81-4.53-45.52-8.89-66.37-13.33-3.49-.74-5.74-.14-8.9,2.38-7.29,5.8-14.78,11.55-22,17.12l-7.45,5.73H493.7l1.26-.81c5.57-3.55,8.49-5.64,8.57-10.76a10.76,10.76,0,0,1,4.13-8.4,14.82,14.82,0,0,1,12.25-2.53c7.49,1.6,11.85,7.52,11.1,15.07A17.23,17.23,0,0,1,528.53,304.69Z" transform="translate(-227.5 -178.2)"/><path class="cls-1" d="M429.85,605.92a13.22,13.22,0,0,1,7.79-4.22c7.33-1.2,13.27,1.86,15.12,7.79.84,2.68,1.94,3.12,7.21,4.16l.57.11,51.88,10.36,63.52-27.25a25.5,25.5,0,0,1,.7-2.69l.35-1,.17-.21c-.12-.21-.26-.42-.37-.6-.22-.35-.44-.7-.65-1.05q-6.89-11.58-13.8-23.17c-5.51-9.25-11.1-18.65-16.72-28.1,0,0-8.45-15-12.88-22.4q-5.91-9.86-11.81-19.74c-.32-.54-.63-1.09-.93-1.63-1.71-3.07-2-3.21-3.11-3.3a17,17,0,0,1-6.06-1.62l-12.09,5.19a24.75,24.75,0,0,1,8.46,8.84c6.72,11.3,27.32,47.42,31.4,54.06l2.65,4.32c.64,1,1.21,2.06,1.77,3,2.84,5.05,4.41,7.5,8.78,8a10.69,10.69,0,0,1,8,4.77c2.2,3.3,2.71,7.94,1.35,12.42-2.2,7.23-8.22,11-15.71,9.8a14.74,14.74,0,0,1-10.5-6.6,10.83,10.83,0,0,1-.82-9.34c1.59-4.4,0-7.09-3.38-12.26-.66-1-1.35-2.06-2-3.16q-4-6.57-8-13.12c-3.61-5.91-7.28-12-10.93-18h-.47c-5.15-8.47-10.32-17-15.4-25.5-2.13-3.57-4-5-7.57-5.67-3.33-.63-6.68-1.26-10-1.91l-79,33.88h25.22l-9,3.84a15.43,15.43,0,0,1-4.7,5,14.25,14.25,0,0,1-11,2.56c-.44-.1-.89-.21-1.32-.35l-9,3.85c24.29,4.87,48.46,9.74,72.28,14.53l20.33,4.1c.49.1,1,.18,1.47.26,3.48.59,8.73,1.47,12.53,7.15l7.73,11.57-128-25.65c4.63,7.84,9.36,15.78,13.95,23.47,7.34,12.32,14.93,25.06,22.28,37.69,2,3.43,3.91,4.83,7.6,5.56l49.56,9.87,24.62-10.57L456,625.7c-4.56-.92-5.26-.71-6.54.67-4.28,4.65-11.07,5.26-16.87,1.49-4.51-2.92-6.82-7.56-6.85-13.79v-1.28l.53-1.15A21.15,21.15,0,0,1,429.85,605.92Zm67-40.91c-4.69-1.22-9.11-5.35-7.63-13.29a8.61,8.61,0,0,1,3.19-6c2.17-1.72,5-2.31,8.54-1.75a11,11,0,0,1,7.34,4.37,10.78,10.78,0,0,1,1.78,8.16A10.38,10.38,0,0,1,496.85,565Z" transform="translate(-227.5 -178.2)"/><path class="cls-1" d="M419.39,865.39,412.25,901h37q-6.56-11.4-12.66-22.09c-1.55-2.71-2.16-2.9-3.4-3.06-5.77-.76-8.83-3.65-10.39-5.94A14.64,14.64,0,0,1,421.07,858a14.47,14.47,0,0,1,3.35-6.36,12.32,12.32,0,0,1,3-2.41,14.12,14.12,0,0,1,11-1.08c4.79,1.37,8.34,4.23,10,8.06a13.38,13.38,0,0,1-.72,11.61c-.55,1.08-.58,1.12.89,3.58l.65,1.1c3.17,5.56,6.36,11.21,9.45,16.69Q462,895,465.39,901h13.17c-16.27-27.32-33.05-55.51-49.58-83.34Q424.18,841.51,419.39,865.39Z" transform="translate(-227.5 -178.2)"/><path class="cls-1" d="M405.9,809.79a14.57,14.57,0,0,1-10.1-5.55,14,14,0,0,1-2.38-10.8,15.46,15.46,0,0,1,3.69-8.15,11.83,11.83,0,0,1,2-1.75,13,13,0,0,1,8.2-2.22c-1.48-2.47-2.94-4.92-4.4-7.38q-19.66-2.12-30.29-12.3-13.41-12.87-13.41-34.3a62.25,62.25,0,0,1,3.38-21c-18.14-30.45-35.5-59.59-52.25-87.73a13.92,13.92,0,0,1-5.72,7,10.55,10.55,0,0,1-8.08,1c-12.44-3-13.67-10.85-13.17-15.61q-5.21,4.65-9.9,9.58a13,13,0,0,1,4.74,4.66c1.93,3.33,2.27,7.41,1,12.12l-.3,1.12-.7.91a19.73,19.73,0,0,0,1,1.78l.27.45c28.94,48.17,67,111.61,105.16,175.2,1,1.59,1.22,1.62,2.09,1.7,6,.58,9.2,3.32,10.82,5.53s3.26,5.94,2.07,11.65a14,14,0,0,1-5.93,9.23,13.7,13.7,0,0,1-10.62,1.66c-5.82-1.27-8.62-4.45-9.94-6.91s-2.46-6.55-.32-12.12c.56-1.46.5-2.17-1.4-5.32-34-56.52-68.55-114-101.94-169.6l-1.27-2.11c-2-3.32-2.47-3.8-4.11-4a15.07,15.07,0,0,1-8.45-3.52l-.1.14L296.75,712l27.75,46.31c.19.32.39.64.6,1,2.06,3.29,5.91,9.42.25,17.23l-5.08,7L297,745.15c-1.94,9.73-3.74,18.68-5.55,27.59a12.32,12.32,0,0,1,2.77,3.12c4.56,7.69,3,15.35-4.15,20a13.43,13.43,0,0,1-19.42-4.13,14.64,14.64,0,0,1-2-12.36,12.75,12.75,0,0,1,7.73-8c1.66-.65,1.94-1.21,2.92-4.37.28-.91.6-2,1-3,9.4-24.31,5.5-46.22-11.95-67l-.23-.28q-.54,2.68-1.06,5.31c-.35,2.21-.8,4.42-1.34,6.67-1.06,5.26-2.1,10.44-3.17,15.66l.22.21a16,16,0,0,1,2.12,2.44c3.21,4.74,3.29,8.77,2.79,11.32a13.92,13.92,0,0,1-6.37,8.9,14.11,14.11,0,0,1-11.13,2.41c-2.56-.58-6.21-2.26-9-7a14.28,14.28,0,0,1-1.62-12.19,13,13,0,0,1,8.07-7.87c1.85-.68,2.16-1.29,3.26-4.76.25-.79.51-1.61.83-2.48a84.92,84.92,0,0,0,2.78-9q.66-3.26,1.32-6.56a55.87,55.87,0,0,0-9.05-40.84q-17.21,35.51-17.23,83.42,0,75,43.2,116.17c0-.21.08-.42.13-.63l.27-1.32c1-4.85,1.06-6.07-1-8.07a11.82,11.82,0,0,1-3.62-9.57,13.82,13.82,0,0,1,3.71-8.06,17,17,0,0,1,2.92-2.52c6.84-4.7,14.65-3.4,19.44,3.24a15.09,15.09,0,0,1,2.55,12.85,11,11,0,0,1-6.61,7.35c-3.86,1.55-4.4,3.82-5.34,9.28-.18,1-.36,2.11-.6,3.22s-.51,2.44-.76,3.66Q325,899,396.17,900.87c6.94-34.85,12.93-64.55,18.67-92.64A14.17,14.17,0,0,1,405.9,809.79Z" transform="translate(-227.5 -178.2)"/><path class="cls-1" d="M613,877c-35-6.94-70.61-14.06-105-21q-20.76-4.17-41.53-8.31,8.39,14.1,16.79,28.19c4.93,8.26,9.92,16.65,14.94,25.08h131q-5.49-9.93-10.94-19.84C616.68,878.49,615.42,877.48,613,877Z" transform="translate(-227.5 -178.2)"/><path class="cls-1" d="M726.51,899.79c-25.5-5-51.42-10.22-76.49-15.26l-13.55-2.72L647,901h80.25a11.27,11.27,0,0,0-.67-1.19Z" transform="translate(-227.5 -178.2)"/><path class="cls-1" d="M435.6,657.07l6.83-2.92q-12.4-2.46-24.77-4.88c-10.89-2.13-17.82-7.08-23.16-16.55-8.83-15.66-18.26-31.36-27.37-46.55q-5.38-9-10.75-17.94L345.27,573a255.53,255.53,0,0,0-32.61,16.6l.22.38c13.95,23.41,28.3,47.51,42.48,71.44a11.06,11.06,0,0,1,2.41-4.59,8.46,8.46,0,0,1,1.55-1.33,9.43,9.43,0,0,1,7.46-1.22c7.94,1.71,9.84,7.53,9,12.41-1,5.65-5.45,8.88-11.6,8.43H364a9.63,9.63,0,0,0,5,2.3l14.85,3a76.8,76.8,0,0,1,12.94-6.58L416,665.49l-9.5-1.91,2.41-11.86Z" transform="translate(-227.5 -178.2)"/><path class="cls-1" d="M846.77,774.52h-64a2.24,2.24,0,0,0-.44,4.43h0c8.45,1.69,17.18,3.44,25.76,5.2,3.69.75,4.91.53,6.85-1.25a16.07,16.07,0,0,1,12.15-4.56c4.62.35,9.09,2.9,12.57,7.21A16.2,16.2,0,0,1,842.93,799a16.55,16.55,0,0,1-8.41,11.37c-5,2.67-9.91,3.27-14.34,1.74a16,16,0,0,1-9.4-9.2c-1-2.31-1.86-2.85-5.71-3.62-40.19-8-81.6-16.25-123.45-24.77a2.12,2.12,0,0,0-.44,0H657.64a2.23,2.23,0,0,0-1.39.48c-10.82,8.59-21.85,17-33.49,26l-.89.68a2.25,2.25,0,0,0,.92,4l17.14,3.43L649.6,811c9.81,2,19.95,4,29.92,6.06l1,.14c2.1.28,5.61.75,7.78,3.74a8.6,8.6,0,0,1-2.46,12c-3.24,1.89-6.64.73-8.47.1-.26-.09-.66-.23-.8-.26-14.3-2.75-28.84-5.68-42.91-8.51L621.3,821.8l-25.44-5.13c-23.92-4.82-48.64-9.81-73-14.46-7.62-1.46-12.78-5.18-16.72-12.08q-4.14-7.25-8.34-14.49a2.23,2.23,0,0,0-1.94-1.12H485.73a2.23,2.23,0,0,0-1.91,3.39c5.18,8.54,10.41,17.19,15.53,25.79,2.1,3.53,4.33,5.07,8.51,5.88,28,5.46,56.5,11.18,84,16.72l27.38,5.5L647,837.36c27.41,5.47,55.75,11.13,83.59,16.88,5.13,1.06,8,.59,11-1.8a54.74,54.74,0,0,1,6.51-4.32,34,34,0,0,0,6.21-4.33c13.86-13.5,29.41-11.41,42.79-7.59,6.21,1.78,9.59,5.93,12.3,9.28a33.56,33.56,0,0,0,3.08,3.45,46.3,46.3,0,0,1,5.45,6.28c3.9,5.07,6,7.49,11,7.25a10.38,10.38,0,0,1,8.42,3.61,15.2,15.2,0,0,1,3.17,12.44c-1.29,7.4-7,12-14.63,11.6a14.83,14.83,0,0,1-10.68-4.71,12.82,12.82,0,0,1-3-9.81c.64-7.41-3.47-11.5-10.21-17.55a79.7,79.7,0,0,1-6.54-6.35c-3.86-4.36-12.23-4.33-19.62-4.31H775c-3.5,0-7.72,3.85-11.43,7.23l-1.33,1.2c-16.06,14.44-33.3,13.15-48,10-57.89-12.45-117-24.08-174.14-35.33l-34.58-6.82c-8.67-1.71-14.17-5.49-18.36-12.62-7-11.84-14.16-23.74-21.29-35.44a2.22,2.22,0,0,0-1.91-1.07H426.78a2.23,2.23,0,0,0-1.92,3.38c9.25,15.58,18.53,31.24,27.7,46.79,2,3.33,4.13,4.75,8.61,5.64,96.73,19.24,192,38.39,264.11,52.91,4.33.88,5.46.69,7.53-1.25a15.9,15.9,0,0,1,12.64-4.57c4.7.54,9,3.39,12.15,8a17,17,0,0,1,3,12.9,2.21,2.21,0,0,0,2.17,2.65h78.91a38.54,38.54,0,0,0,38.54-38.54V808A33.42,33.42,0,0,0,846.77,774.52Z" transform="translate(-227.5 -178.2)"/><path class="cls-1" d="M526.4,786.42c23.81,4.52,45.52,8.88,66.37,13.32,3.5.74,5.74.14,8.9-2.37,7.29-5.81,14.78-11.56,22-17.12l7.45-5.73H614l-1.26.8c-5.57,3.55-8.48,5.64-8.56,10.76a10.82,10.82,0,0,1-4.14,8.41A14.81,14.81,0,0,1,587.79,797c-7.48-1.6-11.84-7.52-11.1-15.07a17.15,17.15,0,0,1,2.48-7.42H562.39l-3,2.05-9.66,6.72-5.16-8.77H515.44q2,3.5,4,7A8.82,8.82,0,0,0,526.4,786.42Z" transform="translate(-227.5 -178.2)"/></svg>